<svg xmlns="http://www.w3.org/2000/svg" viewBox="0 0 32 32" fill="none">
  <rect width="32" height="32" rx="7" fill="#7C3AED"/>
  <!-- Viewfinder corners -->
  <path d="M9 12.5V10.5C9 9.67 9.67 9 10.5 9H12.5" stroke="white" stroke-width="2" stroke-linecap="round" fill="none"/>
  <path d="M19.5 9H21.5C22.33 9 23 9.67 23 10.5V12.5" stroke="white" stroke-width="2" stroke-linecap="round" fill="none"/>
  <path d="M9 19.5V21.5C9 22.33 9.67 23 10.5 23H12.5" stroke="white" stroke-width="2" stroke-linecap="round" fill="none"/>
  <path d="M19.5 23H21.5C22.33 23 23 22.33 23 21.5V19.5" stroke="white" stroke-width="2" stroke-linecap="round" fill="none"/>
  <!-- Spark -->
  <path d="M16 11.5L17.5 15H14.5L16 11.5Z" fill="#FDE68A"/>
  <path d="M16 20.5L14.5 17H17.5L16 20.5Z" fill="#FDE68A"/>
  <path d="M11.5 16L15 14.5V17.5L11.5 16Z" fill="#FDE68A"/>
  <path d="M20.5 16L17 17.5V14.5L20.5 16Z" fill="#FDE68A"/>
  <circle cx="16" cy="16" r="1.5" fill="white"/>
</svg>
